<svg width="33" height="33" viewBox="0 0 33 33" fill="none" xmlns="http://www.w3.org/2000/svg">
<path d="M25.3509 28.7884H7.64917C6.73749 28.7884 5.86315 28.4263 5.21849 27.7816C4.57383 27.1369 4.21167 26.2626 4.21167 25.3509V7.64917C4.21167 6.73749 4.57383 5.86315 5.21849 5.21849C5.86315 4.57383 6.73749 4.21167 7.64917 4.21167H25.3509C26.2626 4.21167 27.1369 4.57383 27.7816 5.21849C28.4263 5.86315 28.7884 6.73749 28.7884 7.64917V25.3509C28.7884 26.2626 28.4263 27.1369 27.7816 27.7816C27.1369 28.4263 26.2626 28.7884 25.3509 28.7884ZM7.64917 5.58667C7.10216 5.58667 6.57756 5.80397 6.19076 6.19076C5.80397 6.57756 5.58667 7.10216 5.58667 7.64917V25.3509C5.58667 25.8979 5.80397 26.4225 6.19076 26.8093C6.57756 27.1961 7.10216 27.4134 7.64917 27.4134H25.3509C25.8979 27.4134 26.4225 27.1961 26.8093 26.8093C27.1961 26.4225 27.4134 25.8979 27.4134 25.3509V7.64917C27.4134 7.10216 27.1961 6.57756 26.8093 6.19076C26.4225 5.80397 25.8979 5.58667 25.3509 5.58667H7.64917Z" fill="#958977"/>
<path d="M16.5 22.8167C15.2506 22.8153 14.0297 22.4436 12.9915 21.7484C11.9534 21.0533 11.1447 20.066 10.6676 18.9113C10.1905 17.7566 10.0664 16.4864 10.3111 15.2612C10.5557 14.036 11.1582 12.9109 12.0422 12.028C12.9262 11.1452 14.0521 10.5442 15.2776 10.3012C16.5031 10.0581 17.7732 10.1838 18.9272 10.6624C20.0813 11.141 21.0675 11.9511 21.7613 12.9901C22.4551 14.0291 22.8252 15.2505 22.825 16.4999C22.8228 18.176 22.1554 19.7827 20.9695 20.967C19.7836 22.1514 18.176 22.8167 16.5 22.8167ZM16.5 11.5499C15.5229 11.5513 14.5681 11.8422 13.7563 12.3859C12.9445 12.9295 12.312 13.7016 11.9387 14.6046C11.5654 15.5075 11.4681 16.5009 11.659 17.4591C11.85 18.4173 12.3206 19.2975 13.0115 19.9884C13.7024 20.6793 14.5826 21.1499 15.5408 21.3408C16.499 21.5318 17.4924 21.4345 18.3953 21.0612C19.2983 20.6879 20.0704 20.0554 20.614 19.2436C21.1577 18.4317 21.4486 17.477 21.45 16.4999C21.45 15.1871 20.9285 13.928 20.0002 12.9997C19.0718 12.0714 17.8128 11.5499 16.5 11.5499Z" fill="#958977"/>
<path d="M23.65 10.8693C24.4663 10.8693 25.1281 10.2076 25.1281 9.39121C25.1281 8.57486 24.4663 7.91309 23.65 7.91309C22.8337 7.91309 22.1719 8.57486 22.1719 9.39121C22.1719 10.2076 22.8337 10.8693 23.65 10.8693Z" fill="#958977"/>
</svg>
