<svg width="30" height="28" viewBox="0 0 30 28" fill="none" xmlns="http://www.w3.org/2000/svg">
<path d="M29.0864 1.30508C28.7886 1.05231 28.4296 0.886775 28.0475 0.826022C27.6653 0.765269 27.2742 0.811562 26.9156 0.959995L2.17342 11.1894C1.7736 11.3577 1.4332 11.6465 1.19742 12.0176C0.961644 12.3886 0.841632 12.8243 0.853318 13.2669C0.865005 13.7094 1.00784 14.1378 1.26285 14.4953C1.51787 14.8527 1.87301 15.1223 2.28113 15.2682L7.61982 17.1661L10.5129 26.9614C10.5184 26.9812 10.5363 26.9939 10.5446 27.0123C10.5744 27.0904 10.618 27.1623 10.6731 27.2244C10.7568 27.3202 10.8648 27.3902 10.9852 27.4267C10.999 27.4323 11.0086 27.4451 11.0224 27.4479H11.0307L11.0349 27.4493C11.1417 27.4729 11.2527 27.467 11.3566 27.4323C11.3677 27.4295 11.3787 27.4295 11.3911 27.4253C11.4909 27.3894 11.5812 27.3304 11.6549 27.2527C11.6632 27.2428 11.677 27.2414 11.6853 27.2329L15.846 22.5291L21.918 27.3447C22.2867 27.6402 22.741 27.8 23.2092 27.8C24.2228 27.8 25.0969 27.0731 25.3054 26.0591L29.81 3.40527C29.8864 3.02069 29.8595 2.62209 29.732 2.25197C29.6046 1.88185 29.3815 1.55409 29.0864 1.30366M12.0222 19.0259L11.0459 23.8868L9.00904 16.9879L19.1106 11.5996L12.21 18.6681C12.1145 18.7659 12.0492 18.8903 12.0222 19.0259ZM23.9521 25.7748C23.9262 25.9031 23.8685 26.0223 23.7846 26.1211C23.7007 26.22 23.5933 26.295 23.4729 26.3391C23.3554 26.3854 23.2282 26.3996 23.1038 26.3802C22.9793 26.3609 22.8619 26.3087 22.7631 26.2288L16.1857 21.0115C16.0482 20.9028 15.8758 20.8512 15.7028 20.8669C15.5298 20.8827 15.3689 20.9646 15.2522 21.0964L12.3564 24.3648L13.3314 19.5181L23.2589 9.34946C23.3751 9.23 23.4459 9.07191 23.4583 8.90373C23.4708 8.73555 23.4241 8.56835 23.3268 8.4323C23.2295 8.29625 23.0878 8.20032 22.9275 8.1618C22.7672 8.12329 22.5987 8.14474 22.4524 8.22228L8.14181 15.8565L2.73269 13.9303C2.58928 13.8818 2.46419 13.7887 2.37484 13.664C2.28549 13.5393 2.23632 13.3891 2.23418 13.2345C2.2273 13.0784 2.268 12.9241 2.35065 12.7928C2.4333 12.6615 2.55379 12.5598 2.69541 12.5019L27.4334 2.27244C27.5602 2.21728 27.6995 2.19944 27.8356 2.22093C27.9718 2.24241 28.0993 2.30237 28.204 2.39407C28.3081 2.48032 28.3867 2.59451 28.4311 2.72387C28.4755 2.85324 28.4839 2.99269 28.4553 3.12666L23.9521 25.7748Z" fill="#958977"/>
</svg>
